<?xml version="1.0" encoding="UTF-8" standalone="no"?>
<svg
   width="24"
   height="24"
   viewBox="0 0 24 24"
   role="img"
   version="1.1"
   id="svg16"
   xmlns="http://www.w3.org/2000/svg"
   xmlns:svg="http://www.w3.org/2000/svg">
  <defs
     id="defs20" />
  <title
     id="title12">ORCID icon</title>
  <path
     d="M 12,0 C 5.372,0 0,5.372 0,12 0,18.628 5.372,24 12,24 18.628,24 24,18.628 24,12 24,5.372 18.628,0 12,0 Z M 7.369,4.378 c 0.525,0 0.947,0.431 0.947,0.947 0,0.516 -0.422,0.947 -0.947,0.947 A 0.95,0.95 0 0 1 6.422,5.325 C 6.422,4.8 6.844,4.378 7.369,4.378 Z M 6.647,7.416 H 8.091 V 17.457 H 6.647 Z m 3.562,0 h 3.9 c 3.712,0 5.344,2.653 5.344,5.025 0,2.578 -2.016,5.025 -5.325,5.025 h -3.919 z m 1.444,1.303 v 7.444 h 2.297 c 3.272,0 4.022,-2.484 4.022,-3.722 0,-2.016 -1.284,-3.722 -4.097,-3.722 z"
     id="path14"
     style="fill:#ffffff;fill-opacity:1" />
</svg>
