<?xml version="1.0" encoding="UTF-8" standalone="no"?>
<svg
   width="32"
   height="32"
   viewBox="0 0 32 32"
   version="1.1"
   id="svg890"
   xmlns="http://www.w3.org/2000/svg"
   xmlns:svg="http://www.w3.org/2000/svg">
  <defs
     id="defs894" />
  <path
     d="M 5,5 V 27 H 27 V 5 Z M 7,7 H 25 V 25 H 7 Z m 12.164062,3.001953 c -1.283,0 -1.722656,0.917203 -1.722656,1.533203 v 1.634766 c 0,0.83 0.452094,1.623047 1.621094,1.623047 1.962,-0.002 1.724609,-1.486578 1.724609,-2.517578 h -1.533203 v 0.541015 h 0.904297 c 0,0.805 -0.37675,1.345703 -1.09375,1.345703 -0.566,0 -0.892578,-0.490921 -0.892578,-1.169921 v -1.357422 c 0,-0.629 0.590187,-0.992188 0.992187,-0.992188 0.717,0 0.992188,0.628906 0.992188,0.628906 l 0.541016,-0.365234 c 0,0 -0.263204,-0.904297 -1.533204,-0.904297 z m -5.580078,3.089844 c -0.905,0 -2.287031,0.08711 -3.582031,0.03711 v 0.402344 c 0.78,0.151 1.105469,0.07503 1.105469,1.207031 v 5.53125 c 0,1.144 -0.326469,1.056032 -1.105469,1.207031 v 0.416016 c 0.377,-0.013 1.029313,-0.05078 1.695313,-0.05078 0.629,0 1.446828,0.02578 1.798828,0.05078 v -0.416016 c -1.006,-0.138 -1.308594,-0.02503 -1.308594,-1.207031 v -2.33789 c 0.34,0.025 0.630031,0.02344 1.082031,0.02344 0.855,1.534 1.671719,2.679703 2.136719,3.220703 0.842,1.018 2.188625,0.867797 2.515625,0.716797 v -0.376953 c -0.503,-0.001 -1.007094,-0.340188 -1.371094,-0.742187 -0.616,-0.666001 -1.446,-1.747797 -2.125,-2.966797 1.132,-0.277 1.97461,-1.345344 1.97461,-2.402344 0,-1.584 -1.220407,-2.3125 -2.816407,-2.3125 z m -0.263672,0.638672 c 1.182001,0 1.884766,0.616047 1.884766,1.748047 -10e-4,1.108 -0.754719,1.847656 -2.011719,1.847656 -0.465,0 -0.678859,-0.01211 -1.005859,-0.03711 v -3.521484 c 0.327,-0.038 0.754812,-0.03711 1.132812,-0.03711 z"
     id="path888"
     style="fill:#ffffff;fill-opacity:1" />
</svg>
